<svg width="100" height="31" viewBox="0 0 100 31" fill="none" xmlns="http://www.w3.org/2000/svg">
    <g clip-path="url(#clip0_453_1982)">
        <path d="M31.9691 22.6626H36.4163C36.5638 22.6626 36.6834 22.5439 36.6834 22.3973V1.00646C36.6834 0.859987 36.5638 0.741211 36.4163 0.741211H31.9691C31.8216 0.741211 31.702 0.859958 31.702 1.00646V22.3973C31.702 22.5439 31.8216 22.6626 31.9691 22.6626Z" fill="black"/>
        <path d="M65.6803 14.8353L57.8709 0.874138C57.825 0.792103 57.738 0.74124 57.6435 0.74124H51.9075C51.7638 0.74124 51.6473 0.856916 51.6473 0.99963V22.4043C51.6473 22.547 51.7638 22.6627 51.9075 22.6627H56.117C56.2607 22.6627 56.3772 22.547 56.3772 22.4043V15.5721C56.3772 13.5018 56.3162 11.432 56.1942 9.36521L56.1643 8.85704C56.131 8.29387 56.8886 8.07524 57.1644 8.56837L64.9744 22.5297C65.0203 22.6117 65.1073 22.6626 65.2018 22.6626H70.9372C71.0809 22.6626 71.1974 22.5469 71.1974 22.4042V0.999602C71.1974 0.856916 71.0809 0.741211 70.9372 0.741211H66.7277C66.584 0.741211 66.4675 0.856887 66.4675 0.999602V7.83172C66.4675 9.90203 66.5285 11.9719 66.6505 14.0386L66.6805 14.5466C66.7137 15.1098 65.9561 15.3284 65.6803 14.8353Z" fill="black"/>
        <path d="M93.0646 8.28138C90.9441 7.73768 89.1119 7.2686 89.1119 6.01856C89.1119 4.9409 90.1908 4.27171 91.9267 4.27171C94.4629 4.27171 95.124 5.632 95.2712 6.17944C95.3018 6.29302 95.4079 6.36794 95.5262 6.36794H99.5215C99.691 6.36794 99.8177 6.21673 99.7842 6.05174C99.5273 4.78642 98.0753 0.297363 91.9268 0.297363C88.2771 0.297363 84.5832 2.30768 84.5832 6.14953C84.5832 10.2174 88.4629 11.2116 91.5802 12.0103C93.7013 12.554 95.5329 13.023 95.5329 14.2731C95.5329 15.8253 93.7872 16.1509 92.3224 16.1509C89.363 16.1509 88.5166 14.2397 88.3204 13.5828C88.2874 13.4725 88.1824 13.3995 88.0664 13.3995H84.0656C83.8955 13.3995 83.7674 13.5518 83.8031 13.7169C84.0969 15.0713 85.7826 20.1249 92.3224 20.1249C97.6693 20.125 100.062 17.1204 100.062 14.1421C100.062 10.0742 96.1824 9.08004 93.0646 8.28138Z" fill="black"/>
        <path d="M86.8323 30.5491H96.999C97.1415 30.5491 97.2571 30.4355 97.2571 30.2953V26.8632C97.2571 26.723 97.1415 26.6094 96.999 26.6094H86.8323C86.6898 26.6094 86.5742 26.723 86.5742 26.8632V30.2953C86.5742 30.4355 86.6898 30.5491 86.8323 30.5491Z" fill="black"/>
        <path d="M13.7677 0.85617L8.02306 9.11443C7.97318 9.18613 7.89104 9.2289 7.80332 9.2289H5.24844C5.10093 9.2289 4.98136 9.11015 4.98136 8.96365V1.00695C4.98136 0.860475 4.86179 0.741699 4.71428 0.741699H0.267081C0.119595 0.741699 0 0.860446 0 1.00695V22.3978C0 22.5443 0.119567 22.6631 0.267081 22.6631H4.71431C4.86182 22.6631 4.98139 22.5443 4.98139 22.3978V14.128C4.98139 13.9815 5.10095 13.8627 5.24847 13.8627H7.95962C8.04778 13.8627 8.13026 13.9059 8.18006 13.9782L14.0837 22.5476C14.1335 22.6199 14.216 22.6631 14.3041 22.6631H19.4835C19.6971 22.6631 19.8243 22.4262 19.7052 22.25L14.7874 14.9727C14.391 14.3862 13.9901 13.8027 13.6029 13.21C13.2068 12.6038 12.8465 12.0506 12.8342 11.2698C12.8217 10.4803 13.1813 9.93349 13.5846 9.32838C13.9773 8.73918 14.3848 8.1602 14.7874 7.57777L19.2255 1.15707C19.3471 0.981059 19.2203 0.741699 19.0053 0.741699H13.9874C13.8997 0.741699 13.8175 0.784496 13.7677 0.85617Z" fill="black"/>
    </g>
    <defs>
        <clipPath id="clip0_453_1982">
            <rect width="100" height="31" fill="white"/>
        </clipPath>
    </defs>
</svg>
